<svg id="Layer_1" data-name="Layer 1" xmlns="http://www.w3.org/2000/svg" viewBox="0 0 20.46 9.87"><defs><style>.cls-1{fill:#787878;}</style></defs><path class="cls-1" d="M17.18,6.67,20,2.34a.32.32,0,0,0-.27-.5l-14,0c-.06.47.12.66.46.66H18.91l-.52.78-11.74,0c-.18.47,0,.64.49.63H18l-.56.87H7.69c-.05.48.06.66.59.66L17,5.32l-.49.79H7.81A.33.33,0,0,1,7.55,6L4.29,1.41A1.8,1.8,0,0,0,3.18.7L.57.2C.37.49.38.72.58.9l2.16.44a1.32,1.32,0,0,1,.81.52L6.66,6.17H6L5,7.58a.32.32,0,0,0,.26.51H6.6a1,1,0,0,0-.24.63.95.95,0,0,0,1.89,0A1,1,0,0,0,8,8.09h7.36a1,1,0,0,0-.25.63.95.95,0,0,0,1.89,0,1,1,0,0,0-.25-.63h.57a.38.38,0,0,0,.14-.57H6.1l.6-.85ZM7.3,9.16a.44.44,0,1,1,.44-.44A.44.44,0,0,1,7.3,9.16Zm8.75,0a.44.44,0,0,1,0-.88.44.44,0,0,1,0,.88Z"/></svg>