<svg id="Layer_1" data-name="Layer 1" xmlns="http://www.w3.org/2000/svg" viewBox="0 0 20.76 16.8"><defs><style>.cls-1{fill:#787878;}</style></defs><path class="cls-1" d="M20.26,8.84A.6.6,0,0,0,20.19,8L17.64,5.9h0v-5A.72.72,0,0,0,16.92.2h-1.6a.73.73,0,0,0-.73.73V3.4l-3.65-3A1,1,0,0,0,9.7.42L.56,8a.6.6,0,0,0-.06.88L1,9.4a.6.6,0,0,0,.82,0l8-6.66a.76.76,0,0,1,1,0l3.74,3.08v0h.05L19,9.44a.59.59,0,0,0,.83-.07Z"/><path class="cls-1" d="M3.91,16.33l4.79.23V11.65H12v4.91l4.66-.15a1,1,0,0,0,1-1v-6L10.81,4a.69.69,0,0,0-.88,0L3.07,9.58v5.87A.88.88,0,0,0,3.91,16.33Z"/></svg>